#!OML:ASF \\sashay\E\basketball\basketball\Project 1\Capture day 1\Session 1\Subject.ASF
:FULLY-SPECIFIED
:DEGREES
64
root -6.2021 13.2625 0.821772 -146.11 -69.7895 149.286
lowerback 29.8756 2.52544 -2.51112
upperback 11.8661 1.22819 3.25655
thorax -3.16809 -0.166769 4.70177
lowerneck -3.64182 -8.3569 -10.5358
upperneck -16.17 -9.39929 31.4587
head -1.55839 -6.10748 11.93
rclavicle 1.59028e-014 -4.13472e-014
rhumerus 0.546106 -49.6416 -83.0384
rradius 17.2469
rwrist 45.6499
rhand -28.9923 30.6128
rfingers 7.12502
rthumb -2.34431 0.645935
lclavicle 1.59028e-014 -4.13472e-014
lhumerus -2.3805 -7.70209 83.1223
lradius 58.4791
lwrist 16.6879
lhand -25.7355 23.4549
lfingers 7.12502
lthumb 0.801174 53.4332
rfemur -15.9628 -7.01833 -6.82784
rtibia 73.4333
rfoot -29.5476 -33.9593
rtoes -47.719
lfemur -41.2063 12.7218 -5.44266
ltibia 51.461
lfoot -7.6495 -3.46684
ltoes -34.592
65
root -5.87689 13.2786 0.669213 -150.916 -67.2633 153.816
lowerback 31.0698 2.90203 -2.74404
upperback 12.2273 1.43931 3.02792
thorax -3.3147 -0.13213 4.52167
lowerneck -5.06722 -8.09928 -10.0614
upperneck -15.4024 -9.20892 30.2138
head -1.26787 -5.83301 11.2767
rclavicle -6.52014e-014 5.56597e-014
rhumerus 1.69634 -48.0588 -83.6569
rradius 17.3919
rwrist 44.2508
rhand -29.7883 30.8795
rfingers 7.12502
rthumb -3.11304 0.922479
lclavicle -6.52014e-014 5.56597e-014
lhumerus 1.61495 -7.38104 80.8364
lradius 57.7233
lwrist 15.6826
lhand -26.3344 23.5606
lfingers 7.12502
lthumb 0.222795 53.5402
rfemur -17.267 -5.94555 -6.30684
rtibia 73.0758
rfoot -30.1089 -33.6078
rtoes -47.7616
lfemur -39.0426 11.7055 -3.38442
ltibia 49.1394
lfoot -7.82122 -0.890114
ltoes -36.1142
66
root -5.52357 13.2994 0.532374 -151.406 -65.6257 155.001
lowerback 31.6192 2.73996 -3.20302
upperback 12.0877 1.04518 2.77323
thorax -3.68112 -0.332398 4.64162
lowerneck -5.30883 -7.50314 -10.4441
upperneck -15.2253 -8.42903 29.7962
head -1.35122 -5.39502 11.2505
rclavicle 2.54444e-014 -4.6118e-014
rhumerus 2.33711 -45.5864 -83.7122
rradius 17.6826
rwrist 41.8754
rhand -30.3414 31.4574
rfingers 7.12502
rthumb -3.64718 1.50882
lclavicle 2.54444e-014 -4.6118e-014
lhumerus 4.98832 -6.35818 78.7845
lradius 56.7886
lwrist 13.8535
lhand -26.4433 23.57
lfingers 7.12502
lthumb 0.117584 53.5498
rfemur -19.6535 -6.88034 -6.29697
rtibia 73.0179
rfoot -33.5047 -31.1659
rtoes -46.0714
lfemur -38.7508 9.83157 -2.37182
ltibia 46.9722
lfoot -7.93991 1.38617
ltoes -36.6383
67
root -5.21967 13.3238 0.398999 -154.531 -63.5268 158.702
lowerback 32.1709 2.89071 -3.10331
upperback 12.1748 1.15517 2.71907
thorax -3.83425 -0.308847 4.49169
lowerneck -7.25168 -7.31425 -8.86285
upperneck -14.3993 -8.4099 27.3206
head -1.07096 -5.18105 9.94949
rclavicle -9.54166e-015 1.27222e-014
rhumerus 2.93523 -42.6306 -83.5332
rradius 18.1622
rwrist 39.0252
rhand -30.6519 31.843
rfingers 7.12502
rthumb -3.947 1.89984
lclavicle -9.54166e-015 1.27222e-014
lhumerus 8.16518 -5.01507 76.9501
lradius 55.8567
lwrist 13.1295
lhand -26.6527 23.5007
lfingers 7.12502
lthumb -0.084665 53.4804
rfemur -22.3723 -7.07791 -4.96746
rtibia 73.0868
rfoot -34.6214 -31.2476
rtoes -46.8899
lfemur -37.575 8.64631 -0.311481
ltibia 45.202
lfoot -8.39138 3.3402
ltoes -35.819
68
root -4.92939 13.3467 0.276441 -157.143 -61.7317 162.089
lowerback 32.9417 2.88436 -2.6536
upperback 11.9666 1.15477 2.87334
thorax -3.91508 -0.344582 4.08856
lowerneck -7.09613 -6.70757 -10.1392
upperneck -15.0246 -7.4427 28.1833
head -1.32656 -4.76792 10.6103
rclavicle -1.43125e-014 1.59028e-014
rhumerus 3.47123 -39.0101 -83.1457
rradius 18.9588
rwrist 35.5183
rhand -30.6044 31.6228
rfingers 7.12502
rthumb -3.90115 1.67878
lclavicle -1.43125e-014 1.59028e-014
lhumerus 11.2331 -3.53131 75.1311
lradius 54.9637
lwrist 13.8848
lhand -27.232 23.3472
lfingers 7.12502
lthumb -0.644118 53.326
rfemur -25.4593 -8.67987 -2.95406
rtibia 73.975
rfoot -34.9847 -31.0117
rtoes -47.7462
lfemur -36.6888 7.45621 1.61443
ltibia 43.7194
lfoot -8.64268 5.22289
ltoes -33.7585
69
root -4.6554 13.3729 0.167141 -158.602 -60.0149 164.478
lowerback 33.1595 2.73198 -2.38998
upperback 12.0673 0.955592 2.78361
thorax -3.86252 -0.463505 3.91855
lowerneck -6.85896 -5.88923 -11.4906
upperneck -15.8923 -6.15343 29.2656
head -1.73871 -4.23923 11.4334
rclavicle -5.88403e-014 9.54166e-015
rhumerus 4.31206 -35.6791 -82.9414
rradius 19.7435
rwrist 32.4995
rhand -30.1437 31.6142
rfingers 7.12502
rthumb -3.45626 1.66248
lclavicle -5.88403e-014 9.54166e-015
lhumerus 13.9528 -1.6223 73.2411
lradius 54.2076
lwrist 15.5773
lhand -27.4572 23.7144
lfingers 7.12502
lthumb -0.861634 53.6924
rfemur -28.8016 -10.986 -0.844413
rtibia 75.1486
rfoot -32.7919 -32.6341
rtoes -49.1764
lfemur -36.3335 6.13631 2.93466
ltibia 42.7534
lfoot -8.95168 7.12085
ltoes -29.7595
70
root -4.34911 13.458 0.0559624 -159.124 -58.8541 165.932
lowerback 33.7454 2.42584 -2.36931
upperback 12.0638 0.499242 2.82013
thorax -4.04502 -0.709627 4.09691
lowerneck -7.45855 -5.49941 -11.3399
upperneck -16.6026 -5.58339 28.7463
head -2.0014 -4.00402 11.2774
rclavicle 6.36111e-015 -7.95139e-016
rhumerus 5.60649 -33.1789 -82.9052
rradius 20.2695
rwrist 30.6045
rhand -29.7932 31.9999
rfingers 7.12502
rthumb -3.11775 2.04297
lclavicle 6.36111e-015 -7.95139e-016
lhumerus 16.4087 0.753501 71.4967
lradius 53.4534
lwrist 18.2556
lhand -28.4635 24.3324
lfingers 7.12502
lthumb -1.83355 54.3043
rfemur -33.2769 -13.1445 1.44669
rtibia 76.9797
rfoot -34.1439 -29.0221
rtoes -45.4665
lfemur -36.5607 4.70538 3.6967
ltibia 41.9879
lfoot -8.7053 8.09544
ltoes -29.265
71
root -4.13383 13.5467 -0.0683333 -159.457 -56.8636 166.478
lowerback 33.9667 2.48249 -2.96973
upperback 12.5202 0.209149 2.66835
thorax -3.61158 -0.935741 4.3479
lowerneck -8.08955 -5.25874 -11.0831
upperneck -17.5387 -5.22163 28.1521
head -2.28806 -3.89733 11.0708
rclavicle 3.89618e-014 -9.14409e-014
rhumerus 7.08012 -30.8483 -82.6704
rradius 20.6033
rwrist 29.0006
rhand -30.0472 32.2315
rfingers 7.12502
rthumb -3.36299 2.27831
lclavicle 3.89618e-014 -9.14409e-014
lhumerus 18.7909 3.36918 69.9645
lradius 52.4551
lwrist 21.8108
lhand -30.1799 24.9342
lfingers 7.12502
lthumb -3.49123 54.8854
rfemur -36.2429 -14.8373 2.94591
rtibia 78.3116
rfoot -33.4231 -27.8327
rtoes -43.3697
lfemur -35.7225 3.7147 3.31256
ltibia 41.7373
lfoot -8.62243 7.77839
ltoes -26.7562
72
root -3.87361 13.6185 -0.194238 -159.326 -55.5886 166.377
lowerback 34.7607 2.46757 -4.03881
upperback 12.8092 -0.317959 2.82162
thorax -3.53678 -1.29634 5.25231
lowerneck -8.06351 -4.96895 -11.6312
upperneck -18.9454 -4.68935 28.4209
head -2.77604 -3.78964 11.4148
rclavicle -1.19271e-014 3.18055e-014
rhumerus 8.52602 -28.0499 -82.0509
rradius 20.7107
rwrist 27.4151
rhand -29.6036 34.4347
rfingers 7.12502
rthumb -2.93461 4.47517
lclavicle -1.19271e-014 3.18055e-014
lhumerus 20.9873 6.39713 68.5697
lradius 50.8402
lwrist 25.5896
lhand -30.2062 25.7163
lfingers 7.12502
lthumb -3.51662 55.667
rfemur -38.8023 -16.8575 4.58466
rtibia 79.4893
rfoot -33.8226 -25.5296
rtoes -39.5512
lfemur -35.7026 2.6481 2.59736
ltibia 41.9967
lfoot -8.71915 5.78562
ltoes -28.9545
